<?xml version="1.0" encoding="UTF-8"?>
<svg width="26px" height="12px" viewBox="0 0 26 12" version="1.1" xmlns="http://www.w3.org/2000/svg" xmlns:xlink="http://www.w3.org/1999/xlink">
    <!-- Generator: Sketch 53.1 (72631) - https://sketchapp.com -->
    <title>new</title>
    <desc>Created with Sketch.</desc>
    <g id="2020-6-17首页优化" stroke="none" stroke-width="1" fill="none" fill-rule="evenodd">
        <g id="首页TRON-状态" transform="translate(-423.000000, -155.000000)">
            <g id="登陆-copy" transform="translate(337.000000, 54.000000)">
                <g id="Group" transform="translate(20.000000, 20.000000)">
                    <g id="Group-2-Copy" transform="translate(0.000000, 77.000000)">
                        <g id="new" transform="translate(66.000000, 4.000000)">
                            <rect id="Rectangle" fill="#FFFFFF" x="4" y="0" width="18" height="11" rx="5.5"></rect>
                            <path d="M20.710571,0.0244418265 L5.30017293,0.0244418265 C2.38855536,0.0244418265 0.0281883768,2.51727839 0.0281883768,5.5922404 L0.0281883768,6.42205818 C0.0281883768,9.49705154 2.38855536,11.9898568 5.30017293,11.9898568 L20.710571,11.9898568 C23.6221293,11.9898568 25.9824963,9.49705154 25.9824963,6.42205818 L25.9824963,5.5922404 C25.9824963,2.51727836 23.6221293,0.0244418265 20.710571,0.0244418265 Z M10.0396526,8.74354316 L9.09076603,8.74354316 L6.87615345,5.15327336 L6.87615345,8.74354316 L5.88983458,8.74354316 L5.88983458,3.27075542 L6.83596272,3.27075542 L9.05333377,6.87202053 L9.05333377,3.27075542 L10.0396526,3.27075542 L10.0396526,8.74354316 Z M13.6229447,4.28999972 L11.7732817,4.28999972 L11.7732817,5.27976655 L13.6229447,5.27976655 L13.6229447,6.28062266 L11.7732817,6.28062266 L11.7732817,7.72047713 L13.6229447,7.72047713 L13.6229447,8.74351185 L10.7940814,8.74351185 L10.7940814,3.27075542 L13.6229447,3.27075542 L13.6229447,4.28999972 Z M18.9533319,8.74354316 L18.0069961,8.74354316 L17.0523849,5.20536802 L16.1153627,8.74354316 L15.1783701,8.74354316 L14.0050977,3.2707241 L14.9756072,3.27075542 L15.7242817,6.76410349 L16.6496175,3.27075542 L17.4697455,3.27075542 L18.4087846,6.76407217 L19.1503702,3.2707241 L20.1208204,3.2707241" id="Shape" fill="#C23631" fill-rule="nonzero"></path>
                        </g>
                    </g>
                </g>
            </g>
        </g>
    </g>
</svg>